<svg width="354" height="236" viewBox="0 0 354 236" fill="none" xmlns="http://www.w3.org/2000/svg">
<path d="M336 51H302V55H332.5C334.433 55 336 53.433 336 51.5V51Z" fill="#72D5B0"/>
<path d="M354 68H302V72H350.5C352.433 72 354 70.433 354 68.5V68Z" fill="#72D5B0"/>
<path d="M347 93H300V97H343.5C345.433 97 347 95.433 347 93.5V93Z" fill="#72D5B0"/>
<path d="M167 214C109.562 214 63 167.438 63 110C63 52.5624 109.562 6 167 6C224.438 6 271 52.5624 271 110C271 167.438 224.438 214 167 214Z" fill="url(#paint0_linear_7_96)"/>
<g filter="url(#filter0_b_7_96)">
<path d="M0 99L89 118.5V133.5L0 183.5V99Z" fill="url(#paint1_linear_7_96)"/>
</g>
<path d="M190.032 201.461C189.514 199.317 186.465 199.317 185.947 201.461L184.205 208.677C184.02 209.443 183.422 210.041 182.656 210.226L175.44 211.968C173.296 212.486 173.296 215.535 175.44 216.053L182.656 217.795C183.422 217.98 184.02 218.578 184.205 219.344L185.947 226.56C186.465 228.704 189.514 228.704 190.032 226.56L191.774 219.344C191.959 218.578 192.557 217.98 193.323 217.795L200.539 216.053C202.683 215.535 202.683 212.486 200.539 211.968L193.323 210.226C192.557 210.041 191.959 209.443 191.774 208.677L190.032 201.461Z" fill="url(#paint2_linear_7_96)"/>
<path d="M128.032 8.46073C127.514 6.31671 124.465 6.3167 123.947 8.46073L122.205 15.6767C122.02 16.4429 121.422 17.0411 120.656 17.2261L113.44 18.968C111.296 19.4856 111.296 22.5352 113.44 23.0528L120.656 24.7947C121.422 24.9796 122.02 25.5778 122.205 26.344L123.947 33.56C124.465 35.7041 127.514 35.7041 128.032 33.56L129.774 26.344C129.959 25.5778 130.557 24.9796 131.323 24.7947L138.539 23.0528C140.683 22.5352 140.683 19.4856 138.539 18.968L131.323 17.2261C130.557 17.0411 129.959 16.4429 129.774 15.6767L128.032 8.46073Z" fill="url(#paint3_linear_7_96)"/>
<path d="M265.986 15.0531C266.319 13.7471 265.113 12.5704 263.815 12.935L255.057 15.3963C253.759 15.7609 253.343 17.3934 254.308 18.3348L260.819 24.6893C261.783 25.6307 263.405 25.1749 263.738 23.8689L265.986 15.0531Z" fill="url(#paint4_linear_7_96)"/>
<path d="M293.287 185.018C291.981 184.687 290.806 185.894 291.172 187.191L293.645 195.947C294.011 197.244 295.644 197.658 296.584 196.692L302.93 190.173C303.87 189.207 303.412 187.586 302.106 187.255L293.287 185.018Z" fill="url(#paint5_linear_7_96)"/>
<path d="M67.2873 68.0183C65.9808 67.687 64.8056 68.8943 65.1719 70.1913L67.6445 78.9467C68.0108 80.2437 69.6439 80.6579 70.5841 79.6921L76.9301 73.1731C77.8702 72.2073 77.4124 70.586 76.1059 70.2547L67.2873 68.0183Z" fill="url(#paint6_linear_7_96)"/>
<path fill-rule="evenodd" clip-rule="evenodd" d="M88.872 96.6298C86.938 96.6298 85.3702 95.062 85.3702 93.128C85.3702 91.1941 86.938 89.6263 88.872 89.6263C90.8059 89.6263 92.3737 91.1941 92.3737 93.128C92.3737 95.062 90.8059 96.6298 88.872 96.6298ZM88.872 99.2561C85.4876 99.2561 82.7439 96.5124 82.7439 93.128C82.7439 89.7436 85.4876 87 88.872 87C92.2564 87 95 89.7436 95 93.128C95 96.5124 92.2564 99.2561 88.872 99.2561Z" fill="url(#paint7_linear_7_96)"/>
<path fill-rule="evenodd" clip-rule="evenodd" d="M199.872 38.6298C197.938 38.6298 196.37 37.062 196.37 35.128C196.37 33.1941 197.938 31.6263 199.872 31.6263C201.806 31.6263 203.374 33.1941 203.374 35.128C203.374 37.062 201.806 38.6298 199.872 38.6298ZM199.872 41.2561C196.488 41.2561 193.744 38.5124 193.744 35.128C193.744 31.7436 196.488 29 199.872 29C203.256 29 206 31.7436 206 35.128C206 38.5124 203.256 41.2561 199.872 41.2561Z" fill="url(#paint8_linear_7_96)"/>
<g filter="url(#filter1_b_7_96)">
<path d="M125 58.5H147.5V105.5H117L125 58.5Z" fill="url(#paint9_linear_7_96)"/>
</g>
<rect width="8" height="56.0431" rx="4" transform="matrix(-0.985164 -0.171616 -0.171616 0.985164 126.522 54.375)" fill="#57D1A3"/>
<path d="M156 51H117C114.791 51 113 52.7909 113 55C113 57.2091 114.791 59 117 59H156V51Z" fill="#57D1A3"/>
<path d="M167 105H105C96.1634 105 89 112.163 89 121V168H167V105Z" fill="url(#paint10_linear_7_96)"/>
<path d="M300 51H147V168H290C295.523 168 300 163.523 300 158V51Z" fill="url(#paint11_linear_7_96)"/>
<path d="M300 136H89V168H290C295.523 168 300 163.523 300 158V136Z" fill="url(#paint12_linear_7_96)"/>
<g filter="url(#filter2_f_7_96)">
<ellipse cx="111" cy="13.5" rx="111" ry="13.5" transform="matrix(-1 0 0 1 309 171)" fill="#92EAC9"/>
</g>
<path d="M256.1 188.8C244.557 188.8 235.2 179.443 235.2 167.9C235.2 156.357 244.557 147 256.1 147C267.643 147 277 156.357 277 167.9C277 179.443 267.643 188.8 256.1 188.8Z" fill="#40C090"/>
<path d="M256.677 178.436C250.878 178.436 246.177 173.735 246.177 167.936C246.177 162.137 250.878 157.436 256.677 157.436C262.476 157.436 267.177 162.137 267.177 167.936C267.177 173.735 262.476 178.436 256.677 178.436Z" fill="url(#paint13_linear_7_96)"/>
<path d="M140.1 188.8C128.557 188.8 119.2 179.443 119.2 167.9C119.2 156.357 128.557 147 140.1 147C151.643 147 161 156.357 161 167.9C161 179.443 151.643 188.8 140.1 188.8Z" fill="#40C090"/>
<path d="M140.17 178.436C134.371 178.436 129.67 173.735 129.67 167.936C129.67 162.137 134.371 157.436 140.17 157.436C145.969 157.436 150.67 162.137 150.67 167.936C150.67 173.735 145.969 178.436 140.17 178.436Z" fill="url(#paint14_linear_7_96)"/>
<path d="M309 51H300V158L309 51Z" fill="url(#paint15_linear_7_96)"/>
<path d="M302 136H300V158L302 136Z" fill="url(#paint16_linear_7_96)"/>
<path d="M208.423 98.9778L204.971 84.848L210.808 83.4219C211.866 83.1635 212.825 83.1313 213.687 83.3254C214.552 83.5137 215.28 83.911 215.872 84.517C216.462 85.1185 216.875 85.9022 217.111 86.8681C217.351 87.8478 217.34 88.7326 217.08 89.5224C216.818 90.3077 216.338 90.9758 215.639 91.5267C214.939 92.073 214.051 92.4777 212.975 92.7406L209.284 93.6424L208.626 90.9517L211.683 90.205C212.198 90.0791 212.612 89.9073 212.924 89.6897C213.24 89.4663 213.454 89.1947 213.566 88.8749C213.677 88.5505 213.679 88.1698 213.572 87.7328C213.465 87.2959 213.287 86.9567 213.038 86.7154C212.788 86.4694 212.471 86.3179 212.086 86.2607C211.701 86.1989 211.253 86.2304 210.742 86.3551L209.059 86.7664L211.838 98.1434L208.423 98.9778ZM214.8 90.5765L219.897 96.1746L216.171 97.0849L211.144 91.4699L214.8 90.5765ZM221.287 95.8349L217.835 81.7051L227.687 79.298L228.365 82.0715L221.928 83.6442L222.636 86.542L228.569 85.0923L229.248 87.8727L223.315 89.3224L224.025 92.227L230.462 90.6543L231.139 93.4278L221.287 95.8349ZM241.851 75.8374L245.304 89.9672L242.406 90.6752L234.791 83.894L234.701 83.9159L236.693 92.0709L233.278 92.9053L229.826 78.7755L232.765 78.0574L240.315 84.84L240.432 84.8113L238.443 76.6701L241.851 75.8374ZM244.214 78.1992L243.537 75.4257L255.479 72.5078L256.157 75.2813L251.872 76.3281L254.647 87.6844L251.28 88.507L248.506 77.1507L244.214 78.1992Z" fill="white"/>
<path d="M250.424 104.592L246.972 90.4622L250.387 89.6278L253.162 100.984L259.04 99.5479L259.717 102.321L250.424 104.592ZM266.581 85.6712L269.99 84.8385L272.217 93.9525C272.474 95.0058 272.447 95.9846 272.137 96.8891C271.826 97.7889 271.274 98.5622 270.481 99.2091C269.688 99.8514 268.698 100.318 267.511 100.607C266.31 100.901 265.21 100.945 264.21 100.741C263.208 100.533 262.364 100.1 261.678 99.4445C260.99 98.7839 260.517 97.927 260.26 96.8737L258.033 87.7597L261.448 86.9253L263.603 95.7426C263.722 96.2302 263.934 96.639 264.239 96.9691C264.548 97.298 264.922 97.5234 265.362 97.6452C265.801 97.767 266.276 97.7655 266.786 97.6407C267.297 97.516 267.716 97.2989 268.045 96.9895C268.379 96.6789 268.607 96.3063 268.73 95.8717C268.853 95.4371 268.855 94.9761 268.736 94.4885L266.581 85.6712ZM275.582 98.4453L272.13 84.3155L278.022 82.8759C279.08 82.6175 280.002 82.5506 280.788 82.6754C281.579 82.7991 282.219 83.0862 282.709 83.5367C283.204 83.986 283.538 84.5649 283.711 85.2732C283.843 85.8114 283.847 86.3196 283.725 86.7978C283.602 87.2714 283.377 87.6945 283.049 88.0671C282.72 88.4398 282.31 88.7448 281.817 88.9821L281.851 89.1201C282.428 89.0084 282.992 89.0338 283.544 89.1964C284.1 89.3578 284.586 89.6533 285.003 90.0827C285.419 90.5075 285.71 91.0603 285.876 91.741C286.062 92.5 286.034 93.2256 285.794 93.9179C285.553 94.6057 285.108 95.2114 284.461 95.735C283.813 96.2541 282.967 96.6411 281.923 96.8962L275.582 98.4453ZM278.325 94.8581L280.436 94.3423C281.177 94.1614 281.688 93.8879 281.969 93.5219C282.254 93.1548 282.336 92.7206 282.213 92.2193C282.125 91.8559 281.963 91.5639 281.729 91.3433C281.493 91.1181 281.202 90.9724 280.854 90.9063C280.506 90.8355 280.113 90.8535 279.676 90.9602L277.502 91.4912L278.325 94.8581ZM276.965 89.2903L278.855 88.8285C279.228 88.7374 279.544 88.5944 279.803 88.3995C280.063 88.2045 280.244 87.97 280.348 87.6961C280.456 87.4211 280.47 87.118 280.389 86.7868C280.273 86.3131 280.014 85.9815 279.612 85.7922C279.21 85.6028 278.724 85.5778 278.154 85.7172L276.208 86.1925L276.965 89.2903Z" fill="white"/>
<defs>
<filter id="filter0_b_7_96" x="-4" y="95" width="97" height="92.5" filterUnits="userSpaceOnUse" color-interpolation-filters="sRGB">
<feFlood flood-opacity="0" result="BackgroundImageFix"/>
<feGaussianBlur in="BackgroundImageFix" stdDeviation="2"/>
<feComposite in2="SourceAlpha" operator="in" result="effect1_backgroundBlur_7_96"/>
<feBlend mode="normal" in="SourceGraphic" in2="effect1_backgroundBlur_7_96" result="shape"/>
</filter>
<filter id="filter1_b_7_96" x="113" y="54.5" width="38.5" height="55" filterUnits="userSpaceOnUse" color-interpolation-filters="sRGB">
<feFlood flood-opacity="0" result="BackgroundImageFix"/>
<feGaussianBlur in="BackgroundImageFix" stdDeviation="2"/>
<feComposite in2="SourceAlpha" operator="in" result="effect1_backgroundBlur_7_96"/>
<feBlend mode="normal" in="SourceGraphic" in2="effect1_backgroundBlur_7_96" result="shape"/>
</filter>
<filter id="filter2_f_7_96" x="65.1142" y="149.114" width="265.772" height="70.7716" filterUnits="userSpaceOnUse" color-interpolation-filters="sRGB">
<feFlood flood-opacity="0" result="BackgroundImageFix"/>
<feBlend mode="normal" in="SourceGraphic" in2="BackgroundImageFix" result="shape"/>
<feGaussianBlur stdDeviation="10.9429" result="effect1_foregroundBlur_7_96"/>
</filter>
<linearGradient id="paint0_linear_7_96" x1="167.802" y1="-27.865" x2="165.671" y2="337.367" gradientUnits="userSpaceOnUse">
<stop stop-color="white" stop-opacity="0"/>
<stop offset="1" stop-color="#96FFD8"/>
</linearGradient>
<linearGradient id="paint1_linear_7_96" x1="100.5" y1="141" x2="1.18339e-06" y2="140.373" gradientUnits="userSpaceOnUse">
<stop offset="1" stop-color="white"/>
<stop stop-color="#B8FF96"/>
</linearGradient>
<linearGradient id="paint2_linear_7_96" x1="209.048" y1="202.698" x2="166.751" y2="202.972" gradientUnits="userSpaceOnUse">
<stop stop-color="#96FFD8"/>
<stop offset="1" stop-color="#40C090"/>
</linearGradient>
<linearGradient id="paint3_linear_7_96" x1="147.048" y1="9.6978" x2="104.751" y2="9.97242" gradientUnits="userSpaceOnUse">
<stop stop-color="#96FFD8"/>
<stop offset="1" stop-color="#40C090"/>
</linearGradient>
<linearGradient id="paint4_linear_7_96" x1="270.192" y1="21.1347" x2="257.5" y2="8.90714" gradientUnits="userSpaceOnUse">
<stop stop-color="#96FFD8"/>
<stop offset="1" stop-color="#40C090"/>
</linearGradient>
<linearGradient id="paint5_linear_7_96" x1="299.363" y1="180.804" x2="287.152" y2="193.512" gradientUnits="userSpaceOnUse">
<stop stop-color="#96FFD8"/>
<stop offset="1" stop-color="#40C090"/>
</linearGradient>
<linearGradient id="paint6_linear_7_96" x1="73.3634" y1="63.8044" x2="61.1522" y2="76.5124" gradientUnits="userSpaceOnUse">
<stop stop-color="#96FFD8"/>
<stop offset="1" stop-color="#40C090"/>
</linearGradient>
<linearGradient id="paint7_linear_7_96" x1="95.0139" y1="89.8285" x2="82.6773" y2="89.9086" gradientUnits="userSpaceOnUse">
<stop stop-color="#96FFD8"/>
<stop offset="1" stop-color="#40C090"/>
</linearGradient>
<linearGradient id="paint8_linear_7_96" x1="206.014" y1="31.8285" x2="193.677" y2="31.9086" gradientUnits="userSpaceOnUse">
<stop stop-color="#96FFD8"/>
<stop offset="1" stop-color="#40C090"/>
</linearGradient>
<linearGradient id="paint9_linear_7_96" x1="153" y1="53.5" x2="112.5" y2="122.5" gradientUnits="userSpaceOnUse">
<stop stop-color="white"/>
<stop offset="1" stop-color="#40C090"/>
</linearGradient>
<linearGradient id="paint10_linear_7_96" x1="101.103" y1="103" x2="121.519" y2="157.91" gradientUnits="userSpaceOnUse">
<stop stop-color="#57D1A3"/>
<stop offset="1" stop-color="#40C090"/>
</linearGradient>
<linearGradient id="paint11_linear_7_96" x1="350" y1="-29.5" x2="147" y2="168" gradientUnits="userSpaceOnUse">
<stop stop-color="#96FFD8"/>
<stop offset="1" stop-color="#40C090"/>
</linearGradient>
<linearGradient id="paint12_linear_7_96" x1="368.954" y1="113.983" x2="348.322" y2="217.955" gradientUnits="userSpaceOnUse">
<stop stop-color="#96FFD8"/>
<stop offset="1" stop-color="#40C090"/>
</linearGradient>
<linearGradient id="paint13_linear_7_96" x1="267.807" y1="173.183" x2="237.467" y2="173.663" gradientUnits="userSpaceOnUse">
<stop stop-color="white"/>
<stop offset="1" stop-color="#BCF3FF"/>
</linearGradient>
<linearGradient id="paint14_linear_7_96" x1="151.3" y1="173.183" x2="120.961" y2="173.663" gradientUnits="userSpaceOnUse">
<stop stop-color="white"/>
<stop offset="1" stop-color="#BCF3FF"/>
</linearGradient>
<linearGradient id="paint15_linear_7_96" x1="304" y1="60" x2="132" y2="175.5" gradientUnits="userSpaceOnUse">
<stop stop-color="#77E8BE"/>
<stop offset="1" stop-color="#40C090"/>
</linearGradient>
<linearGradient id="paint16_linear_7_96" x1="301" y1="136" x2="254.5" y2="175" gradientUnits="userSpaceOnUse">
<stop stop-color="#78E9BF"/>
<stop offset="1" stop-color="#40C090"/>
</linearGradient>
</defs>
</svg>
