<svg width="354" height="236" viewBox="0 0 354 236" fill="none" xmlns="http://www.w3.org/2000/svg">
<path d="M18 51H52V55H21.5C19.567 55 18 53.433 18 51.5V51Z" fill="#72D5B0"/>
<path d="M0 68H52V72H3.5C1.567 72 0 70.433 0 68.5V68Z" fill="#72D5B0"/>
<path d="M7 93H54V97H10.5C8.567 97 7 95.433 7 93.5V93Z" fill="#72D5B0"/>
<path d="M187 214C244.438 214 291 167.438 291 110C291 52.5624 244.438 6 187 6C129.562 6 83 52.5624 83 110C83 167.438 129.562 214 187 214Z" fill="url(#paint0_linear_7_96)"/>
<g filter="url(#filter0_b_7_96)">
<path d="M354 99L265 118.5V133.5L354 183.5V99Z" fill="url(#paint1_linear_7_96)"/>
</g>
<path d="M163.968 201.461C164.486 199.317 167.535 199.317 168.053 201.461L169.795 208.677C169.98 209.443 170.578 210.041 171.344 210.226L178.56 211.968C180.704 212.486 180.704 215.535 178.56 216.053L171.344 217.795C170.578 217.98 169.98 218.578 169.795 219.344L168.053 226.56C167.535 228.704 164.486 228.704 163.968 226.56L162.226 219.344C162.041 218.578 161.443 217.98 160.677 217.795L153.461 216.053C151.317 215.535 151.317 212.486 153.461 211.968L160.677 210.226C161.443 210.041 162.041 209.443 162.226 208.677L163.968 201.461Z" fill="url(#paint2_linear_7_96)"/>
<path d="M225.968 8.46073C226.486 6.31671 229.535 6.3167 230.053 8.46073L231.795 15.6767C231.98 16.4429 232.578 17.0411 233.344 17.2261L240.56 18.968C242.704 19.4856 242.704 22.5352 240.56 23.0528L233.344 24.7947C232.578 24.9796 231.98 25.5778 231.795 26.344L230.053 33.56C229.535 35.7041 226.486 35.7041 225.968 33.56L224.226 26.344C224.041 25.5778 223.443 24.9796 222.677 24.7947L215.461 23.0528C213.317 22.5352 213.317 19.4856 215.461 18.968L222.677 17.2261C223.443 17.0411 224.041 16.4429 224.226 15.6767L225.968 8.46073Z" fill="url(#paint3_linear_7_96)"/>
<path d="M88.0142 15.0531C87.6812 13.7471 88.8869 12.5704 90.1845 12.935L98.943 15.3963C100.241 15.7609 100.657 17.3934 99.6922 18.3348L93.1815 24.6893C92.2169 25.6307 90.595 25.1749 90.262 23.8689L88.0142 15.0531Z" fill="url(#paint4_linear_7_96)"/>
<path d="M60.7127 185.018C62.0192 184.687 63.1944 185.894 62.8281 187.191L60.3555 195.947C59.9892 197.244 58.3561 197.658 57.4159 196.692L51.0699 190.173C50.1298 189.207 50.5876 187.586 51.8941 187.255L60.7127 185.018Z" fill="url(#paint5_linear_7_96)"/>
<path d="M286.713 68.0183C288.019 67.687 289.194 68.8943 288.828 70.1913L286.355 78.9467C285.989 80.2437 284.356 80.6579 283.416 79.6921L277.07 73.1731C276.13 72.2073 276.588 70.586 277.894 70.2547L286.713 68.0183Z" fill="url(#paint6_linear_7_96)"/>
<path fill-rule="evenodd" clip-rule="evenodd" d="M265.128 96.6298C267.062 96.6298 268.63 95.062 268.63 93.128C268.63 91.1941 267.062 89.6263 265.128 89.6263C263.194 89.6263 261.626 91.1941 261.626 93.128C261.626 95.062 263.194 96.6298 265.128 96.6298ZM265.128 99.2561C268.512 99.2561 271.256 96.5124 271.256 93.128C271.256 89.7436 268.512 87 265.128 87C261.744 87 259 89.7436 259 93.128C259 96.5124 261.744 99.2561 265.128 99.2561Z" fill="url(#paint7_linear_7_96)"/>
<path fill-rule="evenodd" clip-rule="evenodd" d="M154.128 38.6298C156.062 38.6298 157.63 37.062 157.63 35.128C157.63 33.1941 156.062 31.6263 154.128 31.6263C152.194 31.6263 150.626 33.1941 150.626 35.128C150.626 37.062 152.194 38.6298 154.128 38.6298ZM154.128 41.2561C157.512 41.2561 160.256 38.5124 160.256 35.128C160.256 31.7436 157.512 29 154.128 29C150.744 29 148 31.7436 148 35.128C148 38.5124 150.744 41.2561 154.128 41.2561Z" fill="url(#paint8_linear_7_96)"/>
<g filter="url(#filter1_b_7_96)">
<path d="M229 58.5H206.5V105.5H237L229 58.5Z" fill="url(#paint9_linear_7_96)"/>
</g>
<rect x="227.478" y="54.375" width="8" height="56.0431" rx="4" transform="rotate(-9.88178 227.478 54.375)" fill="#57D1A3"/>
<path d="M198 51H237C239.209 51 241 52.7909 241 55V55C241 57.2091 239.209 59 237 59H198V51Z" fill="#57D1A3"/>
<path d="M187 105H249C257.837 105 265 112.163 265 121V168H187V105Z" fill="url(#paint10_linear_7_96)"/>
<path d="M54 51H207V168H64C58.4772 168 54 163.523 54 158V51Z" fill="url(#paint11_linear_7_96)"/>
<path d="M54 136H265V168H64C58.4772 168 54 163.523 54 158V136Z" fill="url(#paint12_linear_7_96)"/>
<g filter="url(#filter2_f_7_96)">
<ellipse cx="156" cy="184.5" rx="111" ry="13.5" fill="#92EAC9"/>
</g>
<path d="M97.9 188.8C109.443 188.8 118.8 179.443 118.8 167.9C118.8 156.357 109.443 147 97.9 147C86.3572 147 77 156.357 77 167.9C77 179.443 86.3572 188.8 97.9 188.8Z" fill="#40C090"/>
<path d="M97.3232 178.436C103.122 178.436 107.823 173.735 107.823 167.936C107.823 162.137 103.122 157.436 97.3232 157.436C91.5242 157.436 86.8232 162.137 86.8232 167.936C86.8232 173.735 91.5242 178.436 97.3232 178.436Z" fill="url(#paint13_linear_7_96)"/>
<path d="M213.9 188.8C225.443 188.8 234.8 179.443 234.8 167.9C234.8 156.357 225.443 147 213.9 147C202.357 147 193 156.357 193 167.9C193 179.443 202.357 188.8 213.9 188.8Z" fill="#40C090"/>
<path d="M213.83 178.436C219.629 178.436 224.33 173.735 224.33 167.936C224.33 162.137 219.629 157.436 213.83 157.436C208.031 157.436 203.33 162.137 203.33 167.936C203.33 173.735 208.031 178.436 213.83 178.436Z" fill="url(#paint14_linear_7_96)"/>
<path d="M45 51H54V158L45 51Z" fill="url(#paint15_linear_7_96)"/>
<path d="M52 136H54V158L52 136Z" fill="url(#paint16_linear_7_96)"/>
<path d="M70.7192 98.9778L67.267 84.848L73.1039 83.4219C74.1618 83.1635 75.1214 83.1313 75.9828 83.3254C76.8477 83.5137 77.5759 83.911 78.1676 84.517C78.7581 85.1185 79.1713 85.9022 79.4073 86.8681C79.6467 87.8478 79.6362 88.7326 79.3759 89.5224C79.1144 90.3077 78.6343 90.9758 77.9354 91.5267C77.2354 92.073 76.3472 92.4777 75.271 92.7406L71.5798 93.6424L70.9224 90.9517L73.9788 90.205C74.494 90.0791 74.9077 89.9073 75.2201 89.6897C75.536 89.4663 75.7499 89.1947 75.8618 88.8749C75.9727 88.5505 75.9747 88.1698 75.8679 87.7328C75.7612 87.2959 75.5833 86.9567 75.3342 86.7154C75.084 86.4694 74.7667 86.3179 74.3823 86.2607C73.9968 86.1989 73.5488 86.2304 73.0382 86.3551L71.3548 86.7664L74.1344 98.1434L70.7192 98.9778ZM77.0964 90.5765L82.1928 96.1746L78.4672 97.0849L73.4398 91.4699L77.0964 90.5765ZM83.5831 95.8349L80.1309 81.7051L89.9831 79.298L90.6607 82.0715L84.2237 83.6442L84.9316 86.542L90.8651 85.0923L91.5444 87.8727L85.6109 89.3224L86.3206 92.227L92.7577 90.6543L93.4353 93.4278L83.5831 95.8349ZM104.147 75.8374L107.6 89.9672L104.702 90.6752L97.0865 83.894L96.9968 83.9159L98.9893 92.0709L95.5741 92.9053L92.1219 78.7755L95.061 78.0574L102.611 84.84L102.728 84.8113L100.739 76.6701L104.147 75.8374ZM106.51 78.1992L105.833 75.4257L117.775 72.5078L118.453 75.2813L114.169 76.3281L116.943 87.6844L113.576 88.507L110.802 77.1507L106.51 78.1992Z" fill="white"/>
<path d="M112.72 104.592L109.268 90.4622L112.683 89.6278L115.458 100.984L121.336 99.5479L122.014 102.321L112.72 104.592ZM128.878 85.6712L132.286 84.8385L134.513 93.9525C134.77 95.0058 134.743 95.9846 134.433 96.8891C134.122 97.7889 133.57 98.5622 132.777 99.2091C131.984 99.8514 130.994 100.318 129.807 100.607C128.607 100.901 127.506 100.945 126.506 100.741C125.504 100.533 124.66 100.1 123.974 99.4445C123.286 98.7839 122.813 97.927 122.556 96.8737L120.329 87.7597L123.744 86.9253L125.899 95.7426C126.018 96.2302 126.23 96.639 126.535 96.9691C126.844 97.298 127.218 97.5234 127.658 97.6452C128.097 97.767 128.572 97.7655 129.082 97.6407C129.593 97.516 130.012 97.2989 130.341 96.9895C130.675 96.6789 130.903 96.3063 131.026 95.8717C131.149 95.4371 131.151 94.9761 131.032 94.4885L128.878 85.6712ZM137.879 98.4453L134.426 84.3155L140.318 82.8759C141.376 82.6175 142.298 82.5506 143.084 82.6754C143.875 82.7991 144.515 83.0862 145.005 83.5367C145.5 83.986 145.834 84.5649 146.007 85.2732C146.139 85.8114 146.144 86.3196 146.022 86.7978C145.898 87.2714 145.673 87.6945 145.345 88.0671C145.016 88.4398 144.606 88.7448 144.113 88.9821L144.147 89.1201C144.724 89.0084 145.288 89.0338 145.84 89.1964C146.396 89.3578 146.882 89.6533 147.299 90.0827C147.715 90.5075 148.006 91.0603 148.172 91.741C148.358 92.5 148.33 93.2256 148.09 93.9179C147.849 94.6057 147.404 95.2114 146.757 95.735C146.109 96.2541 145.263 96.6411 144.219 96.8962L137.879 98.4453ZM140.621 94.8581L142.732 94.3423C143.473 94.1614 143.984 93.8879 144.265 93.5219C144.55 93.1548 144.632 92.7206 144.509 92.2193C144.421 91.8559 144.259 91.5639 144.025 91.3433C143.789 91.1181 143.498 90.9724 143.15 90.9063C142.802 90.8355 142.409 90.8535 141.972 90.9602L139.799 91.4912L140.621 94.8581ZM139.261 89.2903L141.151 88.8285C141.524 88.7374 141.84 88.5944 142.099 88.3995C142.359 88.2045 142.54 87.97 142.644 87.6961C142.752 87.4211 142.766 87.118 142.685 86.7868C142.569 86.3131 142.31 85.9815 141.908 85.7922C141.506 85.6028 141.02 85.5778 140.45 85.7172L138.504 86.1925L139.261 89.2903Z" fill="white"/>
<defs>
<filter id="filter0_b_7_96" x="261" y="95" width="97" height="92.5" filterUnits="userSpaceOnUse" color-interpolation-filters="sRGB">
<feFlood flood-opacity="0" result="BackgroundImageFix"/>
<feGaussianBlur in="BackgroundImageFix" stdDeviation="2"/>
<feComposite in2="SourceAlpha" operator="in" result="effect1_backgroundBlur_7_96"/>
<feBlend mode="normal" in="SourceGraphic" in2="effect1_backgroundBlur_7_96" result="shape"/>
</filter>
<filter id="filter1_b_7_96" x="202.5" y="54.5" width="38.5" height="55" filterUnits="userSpaceOnUse" color-interpolation-filters="sRGB">
<feFlood flood-opacity="0" result="BackgroundImageFix"/>
<feGaussianBlur in="BackgroundImageFix" stdDeviation="2"/>
<feComposite in2="SourceAlpha" operator="in" result="effect1_backgroundBlur_7_96"/>
<feBlend mode="normal" in="SourceGraphic" in2="effect1_backgroundBlur_7_96" result="shape"/>
</filter>
<filter id="filter2_f_7_96" x="23.1142" y="149.114" width="265.772" height="70.7716" filterUnits="userSpaceOnUse" color-interpolation-filters="sRGB">
<feFlood flood-opacity="0" result="BackgroundImageFix"/>
<feBlend mode="normal" in="SourceGraphic" in2="BackgroundImageFix" result="shape"/>
<feGaussianBlur stdDeviation="10.9429" result="effect1_foregroundBlur_7_96"/>
</filter>
<linearGradient id="paint0_linear_7_96" x1="186.198" y1="-27.865" x2="188.329" y2="337.367" gradientUnits="userSpaceOnUse">
<stop stop-color="white" stop-opacity="0"/>
<stop offset="1" stop-color="#96FFD8"/>
</linearGradient>
<linearGradient id="paint1_linear_7_96" x1="253.5" y1="141" x2="354" y2="140.373" gradientUnits="userSpaceOnUse">
<stop offset="1" stop-color="white"/>
<stop stop-color="#B8FF96"/>
</linearGradient>
<linearGradient id="paint2_linear_7_96" x1="144.952" y1="202.698" x2="187.249" y2="202.972" gradientUnits="userSpaceOnUse">
<stop stop-color="#96FFD8"/>
<stop offset="1" stop-color="#40C090"/>
</linearGradient>
<linearGradient id="paint3_linear_7_96" x1="206.952" y1="9.6978" x2="249.249" y2="9.97242" gradientUnits="userSpaceOnUse">
<stop stop-color="#96FFD8"/>
<stop offset="1" stop-color="#40C090"/>
</linearGradient>
<linearGradient id="paint4_linear_7_96" x1="83.8081" y1="21.1347" x2="96.5004" y2="8.90714" gradientUnits="userSpaceOnUse">
<stop stop-color="#96FFD8"/>
<stop offset="1" stop-color="#40C090"/>
</linearGradient>
<linearGradient id="paint5_linear_7_96" x1="54.6366" y1="180.804" x2="66.8478" y2="193.512" gradientUnits="userSpaceOnUse">
<stop stop-color="#96FFD8"/>
<stop offset="1" stop-color="#40C090"/>
</linearGradient>
<linearGradient id="paint6_linear_7_96" x1="280.637" y1="63.8044" x2="292.848" y2="76.5124" gradientUnits="userSpaceOnUse">
<stop stop-color="#96FFD8"/>
<stop offset="1" stop-color="#40C090"/>
</linearGradient>
<linearGradient id="paint7_linear_7_96" x1="258.986" y1="89.8285" x2="271.323" y2="89.9086" gradientUnits="userSpaceOnUse">
<stop stop-color="#96FFD8"/>
<stop offset="1" stop-color="#40C090"/>
</linearGradient>
<linearGradient id="paint8_linear_7_96" x1="147.986" y1="31.8285" x2="160.323" y2="31.9086" gradientUnits="userSpaceOnUse">
<stop stop-color="#96FFD8"/>
<stop offset="1" stop-color="#40C090"/>
</linearGradient>
<linearGradient id="paint9_linear_7_96" x1="201" y1="53.5" x2="241.5" y2="122.5" gradientUnits="userSpaceOnUse">
<stop stop-color="white"/>
<stop offset="1" stop-color="#40C090"/>
</linearGradient>
<linearGradient id="paint10_linear_7_96" x1="252.897" y1="103" x2="232.481" y2="157.91" gradientUnits="userSpaceOnUse">
<stop stop-color="#57D1A3"/>
<stop offset="1" stop-color="#40C090"/>
</linearGradient>
<linearGradient id="paint11_linear_7_96" x1="3.99999" y1="-29.5" x2="207" y2="168" gradientUnits="userSpaceOnUse">
<stop stop-color="#96FFD8"/>
<stop offset="1" stop-color="#40C090"/>
</linearGradient>
<linearGradient id="paint12_linear_7_96" x1="-14.9543" y1="113.983" x2="5.6781" y2="217.955" gradientUnits="userSpaceOnUse">
<stop stop-color="#96FFD8"/>
<stop offset="1" stop-color="#40C090"/>
</linearGradient>
<linearGradient id="paint13_linear_7_96" x1="86.1927" y1="173.183" x2="116.533" y2="173.663" gradientUnits="userSpaceOnUse">
<stop stop-color="white"/>
<stop offset="1" stop-color="#BCF3FF"/>
</linearGradient>
<linearGradient id="paint14_linear_7_96" x1="202.7" y1="173.183" x2="233.039" y2="173.663" gradientUnits="userSpaceOnUse">
<stop stop-color="white"/>
<stop offset="1" stop-color="#BCF3FF"/>
</linearGradient>
<linearGradient id="paint15_linear_7_96" x1="50" y1="60" x2="222" y2="175.5" gradientUnits="userSpaceOnUse">
<stop stop-color="#77E8BE"/>
<stop offset="1" stop-color="#40C090"/>
</linearGradient>
<linearGradient id="paint16_linear_7_96" x1="53" y1="136" x2="99.5" y2="175" gradientUnits="userSpaceOnUse">
<stop stop-color="#78E9BF"/>
<stop offset="1" stop-color="#40C090"/>
</linearGradient>
</defs>
</svg>
